<svg width="8" height="18" viewBox="0 0 8 18" fill="none" xmlns="http://www.w3.org/2000/svg">
<path d="M7.71498 16.0575L7.46347 17.0856C6.70896 17.3834 6.10626 17.6101 5.65746 17.7659C5.20817 17.9222 4.68613 18 4.09133 18C3.17791 18 2.46744 17.7762 1.96073 17.3318C1.45401 16.8856 1.20057 16.3201 1.20057 15.6342C1.20057 15.3687 1.21896 15.0955 1.25719 14.8172C1.29575 14.5386 1.35705 14.2249 1.44094 13.8741L2.38388 10.5367C2.46777 10.2171 2.53907 9.9143 2.59618 9.62795C2.65409 9.34338 2.682 9.08155 2.682 8.84585C2.682 8.41964 2.59376 8.12151 2.41808 7.9539C2.2424 7.78677 1.90717 7.70191 1.40948 7.70191C1.16572 7.70191 0.915189 7.74095 0.659813 7.81645C0.403309 7.89227 0.18407 7.96551 0 8.03359L0.252149 7.00467C0.869857 6.75317 1.4603 6.5378 2.02509 6.35905C2.58989 6.17982 3.12355 6.09013 3.62833 6.09013C4.53545 6.09013 5.23543 6.30936 5.72699 6.74784C6.21854 7.18664 6.46424 7.75547 6.46424 8.45642C6.46424 8.60145 6.4481 8.85699 6.41342 9.22222C6.37954 9.58827 6.31646 9.92366 6.22451 10.2287L5.2856 13.5528C5.20865 13.8198 5.13945 14.125 5.07927 14.4685C5.01716 14.8097 4.98748 15.0704 4.98748 15.2452C4.98748 15.6866 5.08589 15.988 5.28319 16.1482C5.48194 16.3084 5.82426 16.3881 6.31049 16.3881C6.53877 16.3881 6.7985 16.3476 7.08711 16.268C7.37491 16.1885 7.58479 16.1186 7.71498 16.0575ZM7.95309 2.10205C7.95309 2.6812 7.73482 3.17582 7.29618 3.58251C6.85867 3.99066 6.33147 4.1949 5.71473 4.1949C5.09605 4.1949 4.56755 3.99066 4.12504 3.58251C3.68334 3.17565 3.462 2.6812 3.462 2.10205C3.462 1.52402 3.68334 1.0286 4.12504 0.61674C4.56675 0.205526 5.09621 0 5.71473 0C6.33131 0 6.85867 0.20601 7.29618 0.61674C7.73514 1.0286 7.95309 1.52418 7.95309 2.10205Z" fill="#374A59"/>
</svg>
